Patient4_TMGait_0pt5_02_left_05_GRF.mot
version=1
nRows=72
nColumns=19
inDegrees=no
endheader
time	F1x	F1y	F1z	M1x	M1y	M1z	F2x	F2y	F2z	M2x	M2y	M2z	EC1x	EC1y	EC1z	EC2x	EC2y	EC2z
5.75	8.5443	2.7898	-1.4476	-0.9936	2.8421	7.8986	-23.6671	737.0257	-43.7184	268.437	45.0141	603.9629	-0.0592	0.0182	-0.0073	-0.0462	0.0165	0.9585
5.7634	5.5911	2.2544	-1.0346	-0.78273	1.8671	5.6153	-21.1813	744.2329	-46.0573	272.31	45.5965	606.8	-0.0592	0.0182	-0.0073	-0.0462	0.0165	0.9585
5.7769	3.0885	1.8036	-0.62456	-0.61977	0.99992	3.6931	-18.5098	752.321	-47.7088	276.4775	45.5675	609.557	-0.0592	0.0182	-0.0073	-0.0462	0.0165	0.9585
5.7903	1.1821	1.4669	-0.26466	-0.50872	0.30285	2.2455	-15.7183	760.6823	-48.6102	280.6535	44.9241	611.8444	-0.0592	0.0182	-0.0073	-0.0462	0.0165	0.9585
5.8037	-0.13757	1.2471	0.010171	-0.44618	-0.19974	1.2695	-12.8179	768.6748	-48.8886	284.5746	43.7782	613.282	-0.0592	0.0182	-0.0073	-0.0462	0.0165	0.9585
5.8171	-0.96199	1.1329	0.20926	-0.42224	-0.53901	0.70279	-9.8017	775.7502	-48.7383	288.0299	42.2736	613.5825	-0.0592	0.0182	-0.0073	-0.0462	0.0165	0.9585
5.8306	-1.4105	1.0942	0.32615	-0.42159	-0.73306	0.44807	-6.6838	781.4974	-48.3742	290.8648	40.5686	612.5746	-0.0592	0.0182	-0.0073	-0.0462	0.0165	0.9585
5.844	-1.6041	1.0834	0.39026	-0.42324	-0.83273	0.38784	-3.4899	785.5975	-47.9882	292.9594	38.8089	610.1456	-0.0592	0.0182	-0.0073	-0.0462	0.0165	0.9585
5.8574	-1.647	1.038	0.41106	-0.40397	-0.86619	0.392	-0.25455	787.7988	-47.7264	294.2234	37.1169	606.2255	-0.0592	0.0182	-0.0073	-0.0462	0.0165	0.9585
5.8709	-1.6225	0.88531	0.42288	-0.33677	-0.87983	0.34291	2.9848	788.0068	-47.6356	294.6333	35.5441	600.843	-0.0592	0.0182	-0.0073	-0.0462	0.0165	0.9585
5.8843	-1.575	0.54429	0.43511	-0.19257	-0.8885	0.13064	6.2091	786.3293	-47.6729	294.2446	34.0725	594.1496	-0.0592	0.0182	-0.0073	-0.0462	0.0165	0.9585
5.8977	-1.5231	-0.063484	0.46745	0.058382	-0.91174	-0.33989	9.3947	783.0507	-47.7405	293.178	32.6429	586.4182	-0.0592	0.0182	-0.0073	-0.0462	0.0165	0.9585
5.9111	-1.4608	-1.0089	0.50996	0.44071	-0.93848	-1.1487	12.517	778.5617	-47.7451	291.5889	31.1992	577.9908	-0.0592	0.0182	-0.0073	-0.0462	0.0165	0.9585
5.9246	-1.3512	-2.3274	0.55799	0.965	-0.95153	-2.3211	15.5397	773.2954	-47.6453	289.6365	29.7252	569.2433	-0.0592	0.0182	-0.0073	-0.0462	0.0165	0.9585
5.938	-1.1379	-3.9734	0.58312	1.6099	-0.90045	-3.8061	18.4233	767.6879	-47.4617	287.4701	28.2466	560.5391	-0.0592	0.0182	-0.0073	-0.0462	0.0165	0.9585
5.9514	-0.74908	-5.7704	0.55677	2.3047	-0.72696	-5.4459	21.1248	762.1718	-47.27	285.232	26.8267	552.2329	-0.0592	0.0182	-0.0073	-0.0462	0.0165	0.9585
5.9649	-0.096531	-7.3529	0.42384	2.9062	-0.34581	-6.9141	23.6087	757.1278	-47.1687	283.0469	25.5432	544.6337	-0.0592	0.0182	-0.0073	-0.0462	0.0165	0.9585
5.9783	0.90991	-8.1064	0.12133	3.1738	0.33148	-7.6553	25.8758	752.8363	-47.2533	281.0116	24.4577	537.9544	-0.0592	0.0182	-0.0073	-0.0462	0.0165	0.9585
5.9917	2.3362	-7.1185	-0.42483	2.7489	1.3928	-6.833	27.9431	749.4223	-47.5912	279.1753	23.6076	532.2783	-0.0592	0.0182	-0.0073	-0.0462	0.0165	0.9585
6.0051	4.1806	-3.1504	-1.2812	1.1474	2.8911	-3.3109	29.8255	746.7637	-48.2193	277.5058	23.016	527.495	-0.0592	0.0182	-0.0073	-0.0462	0.0165	0.9585
6.0186	6.3173	5.3147	-2.4964	-2.2215	4.8135	4.2967	31.49	744.3924	-49.1254	275.8496	22.6879	523.2553	-0.0592	0.0182	-0.0073	-0.0462	0.0165	0.9585
6.032	8.434	19.9235	-4.0599	-7.9915	7.0222	17.504	32.8572	741.446	-50.2433	273.9113	22.6123	518.9434	-0.0592	0.0182	-0.0073	-0.0462	0.0165	0.9585
6.0454	9.9511	42.1279	-5.8569	-16.7121	9.1871	37.656	33.8217	736.6888	-51.424	271.2643	22.7327	513.6872	-0.0592	0.0182	-0.0073	-0.0462	0.0165	0.9585
6.0589	9.9746	72.675	-7.6038	-28.6503	10.7053	65.4674	34.2772	728.6528	-52.456	267.4022	22.9545	506.4563	-0.0592	0.0182	-0.0073	-0.0462	0.0165	0.9585
6.0723	7.5078	111.0511	-8.8376	-43.5753	10.7774	100.5198	34.1673	715.8545	-53.0703	261.8203	23.1295	496.2008	-0.0592	0.0182	-0.0073	-0.0462	0.0165	0.9585
6.0857	2.3326	155.2905	-8.9207	-60.6742	8.7437	141.0475	33.4832	697.042	-52.9979	254.1036	23.0952	482.0415	-0.0592	0.0182	-0.0073	-0.0462	0.0165	0.9585
6.0991	-4.5172	201.8306	-7.1168	-78.5088	4.3261	183.7203	32.2813	671.3581	-52.0181	243.9816	22.6954	463.3582	-0.0592	0.0182	-0.0073	-0.0462	0.0165	0.9585
6.1126	-11.6248	246.1348	-2.9719	-95.3143	-2.3367	224.1751	30.679	638.4579	-50.0335	231.3644	21.8343	439.8733	-0.0592	0.0182	-0.0073	-0.0462	0.0165	0.9585
6.126	-17.8832	285.5679	2.9846	-110.0999	-10.2902	259.7704	28.8355	598.6553	-47.0825	216.3877	20.4848	411.7552	-0.0592	0.0182	-0.0073	-0.0462	0.0165	0.9585
6.1394	-22.9074	320.3742	9.9339	-123.0079	-18.5966	290.6223	26.9002	552.882	-43.3528	199.3957	18.7182	379.6097	-0.0592	0.0182	-0.0073	-0.0462	0.0165	0.9585
6.1529	-26.6728	352.592	17.0953	-134.8711	-26.5205	318.5319	24.972	502.4494	-39.0895	180.8582	16.6584	344.3515	-0.0592	0.0182	-0.0073	-0.0462	0.0165	0.9585
6.1663	-29.2735	384.5501	23.8435	-146.6246	-33.5328	345.5678	23.0636	448.7926	-34.4831	161.2853	14.4196	307.0014	-0.0592	0.0182	-0.0073	-0.0462	0.0165	0.9585
6.1797	-30.8079	417.9922	29.72	-158.9656	-39.2696	373.2598	21.0925	393.3378	-29.6601	141.1786	12.0992	268.5784	-0.0592	0.0182	-0.0073	-0.0462	0.0165	0.9585
6.1931	-31.3996	453.8534	34.5526	-172.2522	-43.6421	402.4277	18.9447	337.4442	-24.7568	121.0096	9.8123	230.0385	-0.0592	0.0182	-0.0073	-0.0462	0.0165	0.9585
6.2066	-31.255	492.3491	38.4196	-186.5327	-46.8077	433.314	16.495	282.4346	-19.9431	101.2299	7.6897	192.3034	-0.0592	0.0182	-0.0073	-0.0462	0.0165	0.9585
6.22	-30.5726	532.9935	41.6519	-201.5671	-49.1397	465.5713	13.6779	229.6312	-15.4408	82.2858	5.874	156.2616	-0.0592	0.0182	-0.0073	-0.0462	0.0165	0.9585
6.2334	-29.5886	574.7662	44.6721	-216.9031	-51.0954	498.4068	10.5399	180.4035	-11.4759	64.6421	4.477	122.8051	-0.0592	0.0182	-0.0073	-0.0462	0.0165	0.9585
6.2469	-28.5737	616.3029	47.8439	-231.9744	-53.0918	530.733	7.2436	136.1159	-8.2229	48.7684	3.5467	92.8023	-0.0592	0.0182	-0.0073	-0.0462	0.0165	0.9585
6.2603	-27.7574	656.1711	51.3165	-246.2241	-55.3481	561.3981	4.0762	97.9401	-5.7422	35.0766	3.0206	66.9722	-0.0592	0.0182	-0.0073	-0.0462	0.0165	0.9585
6.2737	-27.2469	693.1095	54.9598	-259.1994	-57.8084	589.3933	1.3631	66.5659	-3.9673	23.8157	2.7518	45.7252	-0.0592	0.0182	-0.0073	-0.0462	0.0165	0.9585
6.2871	-26.9934	726.0554	58.4225	-270.5576	-60.1788	613.8366	-0.67022	42.0069	-2.7292	14.9991	2.5674	29.0411	-0.0592	0.0182	-0.0073	-0.0462	0.0165	0.9585
6.3006	-26.8675	754.0967	61.3129	-280.0248	-62.1001	633.9674	-1.9613	23.7529	-1.8487	8.4502	2.3458	16.5887	-0.0592	0.0182	-0.0073	-0.0462	0.0165	0.9585
6.314	-26.6861	776.4349	63.3862	-287.364	-63.316	649.1168	-2.544	10.9845	-1.197	3.8756	2.0312	7.838	-0.0592	0.0182	-0.0073	-0.0462	0.0165	0.9585
6.3274	-26.2762	792.4674	64.594	-292.3975	-63.7307	658.8042	-2.5432	2.7482	-0.71027	0.9307	1.636	2.161	-0.0592	0.0182	-0.0073	-0.0462	0.0165	0.9585
6.3409	-25.5105	801.9583	64.9959	-295.0742	-63.3508	662.8747	-2.1923	-1.9384	-0.37756	-0.73939	1.2388	-1.093	-0.0592	0.0182	-0.0073	-0.0462	0.0165	0.9585
6.3543	-24.3094	805.1905	64.6865	-295.5271	-62.2281	661.6008	-1.7019	-4.0608	-0.18391	-1.4881	0.90212	-2.5872	-0.0592	0.0182	-0.0073	-0.0462	0.0165	0.9585
6.3677	-22.6395	802.9862	63.7495	-294.0826	-60.4242	655.7088	-1.2063	-4.5093	-0.097647	-1.6345	0.64646	-2.9247	-0.0592	0.0182	-0.0073	-0.0462	0.0165	0.9585
6.3811	-20.5116	796.566	62.2685	-291.2074	-58.0151	646.2387	-0.7756	-4.0015	-0.087842	-1.4355	0.47159	-2.5991	-0.0592	0.0182	-0.0073	-0.0462	0.0165	0.9585
6.3946	-17.9968	787.3495	60.3718	-287.4266	-55.1322	634.3927	-0.44553	-3.0505	-0.12426	-1.0758	0.36444	-1.9656	-0.0592	0.0182	-0.0073	-0.0462	0.0165	0.9585
6.408	-15.1933	776.7486	58.208	-283.2516	-51.9305	621.3528	-0.21087	-1.9941	-0.18513	-0.67886	0.30853	-1.2635	-0.0592	0.0182	-0.0073	-0.0462	0.0165	0.9585
6.4214	-12.2123	766.0338	55.9446	-279.1343	-48.5874	608.173	-0.059932	-1.0174	-0.24572	-0.31518	0.28161	-0.61443	-0.0592	0.0182	-0.0073	-0.0462	0.0165	0.9585
6.4349	-9.1507	756.2537	53.7152	-275.4443	-45.2453	595.7109	0.02842	-0.21366	-0.29469	-0.019204	0.26974	-0.084789	-0.0592	0.0182	-0.0073	-0.0462	0.0165	0.9585
6.4483	-6.0809	748.1888	51.6386	-272.4559	-42.0322	584.5901	0.073612	0.39697	-0.32297	0.20213	0.26164	0.308	-0.0592	0.0182	-0.0073	-0.0462	0.0165	0.9585
6.4617	-3.0531	742.3279	49.7802	-270.3445	-39.0258	575.1949	0.086741	0.83521	-0.33327	0.35658	0.25684	0.58624	-0.0592	0.0182	-0.0073	-0.0462	0.0165	0.9585
6.4751	-0.072077	738.8775	48.1839	-269.1843	-36.2719	567.6572	0.079139	1.128	-0.32633	0.45551	0.25188	0.77123	-0.0592	0.0182	-0.0073	-0.0462	0.0165	0.9585
6.4886	2.8844	737.8123	46.8364	-268.9632	-33.7545	561.9096	0.050029	1.3111	-0.31066	0.51133	0.25241	0.89312	-0.0592	0.0182	-0.0073	-0.0462	0.0165	0.9585
6.502	5.8604	738.886	45.7141	-269.5881	-31.4373	557.7118	0.0050283	1.4011	-0.29304	0.53105	0.25782	0.96306	-0.0592	0.0182	-0.0073	-0.0462	0.0165	0.9585
6.5154	8.9057	741.6984	44.7673	-270.9049	-29.2508	554.7148	-0.061506	1.4004	-0.28498	0.51668	0.27697	0.99003	-0.0592	0.0182	-0.0073	-0.0462	0.0165	0.9585
6.5289	12.0498	745.747	43.972	-272.7103	-27.1508	552.5245	-0.14474	1.2919	-0.29097	0.4626	0.31191	0.94474	-0.0592	0.0182	-0.0073	-0.0462	0.0165	0.9585
6.5423	15.3006	750.4755	43.3242	-274.7687	-25.1157	550.7398	-0.2385	1.0438	-0.31759	0.35635	0.36661	0.78352	-0.0592	0.0182	-0.0073	-0.0462	0.0165	0.9585
6.5557	18.6212	755.3274	42.8663	-276.8298	-23.1758	549.0071	-0.34345	0.6121	-0.3633	0.1792	0.44024	0.46067	-0.0592	0.0182	-0.0073	-0.0462	0.0165	0.9585
6.5691	21.9536	759.7891	42.6681	-278.6534	-21.3945	547.0252	-0.44769	-0.052246	-0.42575	-0.090611	0.52917	-0.077656	-0.0592	0.0182	-0.0073	-0.0462	0.0165	0.9585
6.5826	25.2308	763.453	42.8066	-280.0418	-19.8512	544.5988	-0.54391	-0.9894	-0.49195	-0.47075	0.61998	-0.86885	-0.0592	0.0182	-0.0073	-0.0462	0.0165	0.9585
6.596	28.3876	766.0564	43.3268	-280.863	-18.6027	541.6379	-0.6107	-2.2087	-0.54496	-0.96526	0.69056	-1.9221	-0.0592	0.0182	-0.0073	-0.0462	0.0165	0.9585
6.6094	31.3811	767.4948	44.2543	-281.0574	-17.6876	538.154	-0.61384	-3.6446	-0.55532	-1.5478	0.70046	-3.1785	-0.0592	0.0182	-0.0073	-0.0462	0.0165	0.9585
6.6229	34.1925	767.7915	45.586	-280.6276	-17.1113	534.2267	-0.50356	-5.116	-0.48908	-2.1431	0.59606	-4.4865	-0.0592	0.0182	-0.0073	-0.0462	0.0165	0.9585
6.6363	36.8224	767.0259	47.303	-279.612	-16.8688	529.9545	-0.2077	-6.2784	-0.2989	-2.607	0.30477	-5.5522	-0.0592	0.0182	-0.0073	-0.0462	0.0165	0.9585
6.6497	39.2728	765.2808	49.3473	-278.0652	-16.9303	525.4011	0.35353	-6.5612	0.068559	-2.704	-0.24949	-5.8706	-0.0592	0.0182	-0.0073	-0.0462	0.0165	0.9585
6.6631	41.5427	762.6413	51.6324	-276.0547	-17.2488	520.5939	1.27	-5.1388	0.67272	-2.093	-1.1502	-4.7114	-0.0592	0.0182	-0.0073	-0.0462	0.0165	0.9585
6.6766	43.6166	759.2161	54.0433	-273.6634	-17.7549	515.5634	2.6062	-0.9162	1.5568	-0.324	-2.4588	-1.1022	-0.0592	0.0182	-0.0073	-0.0462	0.0165	0.9585
6.69	45.4602	755.0846	56.4528	-270.9656	-18.3758	510.318	4.3717	7.4008	2.7293	3.1337	-4.1844	6.1068	-0.0592	0.0182	-0.0073	-0.0462	0.0165	0.9585
6.7034	47.0103	750.1987	58.7142	-267.9889	-19.0346	504.7847	6.4707	21.1366	4.1257	8.8206	-6.2249	18.0957	-0.0592	0.0182	-0.0073	-0.0462	0.0165	0.9585
